<?xml version="1.0" encoding="utf-8"?>
<!-- Generator: Adobe Illustrator 19.0.0, SVG Export Plug-In . SVG Version: 6.00 Build 0)  -->
<svg version="1.1" id="Layer_1" xmlns="http://www.w3.org/2000/svg" xmlns:xlink="http://www.w3.org/1999/xlink" x="0px" y="0px"
	 viewBox="0 0 595.3 841.9" style="enable-background:new 0 0 595.3 841.9;" xml:space="preserve">
<style type="text/css">
	.st0{fill-rule:evenodd;clip-rule:evenodd;fill:#0060AC;}
	.st1{fill-rule:evenodd;clip-rule:evenodd;fill:#88CCC6;}
	.st2{fill-rule:evenodd;clip-rule:evenodd;fill:none;stroke:#0060AC;stroke-width:2.126;stroke-miterlimit:22.9256;}
</style>
<path class="st0" d="M99,230.6c7.6,0,14.5,3.1,19.5,8.1c5,5,8.1,11.9,8.1,19.5c0,7.6-3.1,14.5-8.1,19.5c-5,5-11.9,8.1-19.5,8.1
	c-7.6,0-14.5-3.1-19.5-8.1c-5-5-8.1-11.9-8.1-19.5c0-7.6,3.1-14.5,8.1-19.5C84.4,233.7,91.3,230.6,99,230.6L99,230.6z M113.7,243.5
	c-3.8-3.8-9-6.1-14.7-6.1c-5.8,0-11,2.3-14.7,6.1c-3.8,3.8-6.1,9-6.1,14.7s2.3,11,6.1,14.7c3.8,3.8,9,6.1,14.7,6.1s11-2.3,14.7-6.1
	c3.8-3.8,6.1-9,6.1-14.7S117.5,247.3,113.7,243.5z"/>
<path class="st1" d="M99,245.1c3.6,0,6.9,1.5,9.3,3.8c2.4,2.4,3.8,5.7,3.8,9.3c0,3.6-1.5,6.9-3.8,9.3c-2.4,2.4-5.7,3.8-9.3,3.8
	c-3.6,0-6.9-1.5-9.3-3.8c-2.4-2.4-3.8-5.7-3.8-9.3c0-3.6,1.5-6.9,3.8-9.3C92,246.6,95.3,245.1,99,245.1L99,245.1z M103.5,253.7
	c-1.2-1.2-2.7-1.9-4.5-1.9s-3.4,0.7-4.5,1.9c-1.2,1.2-1.9,2.7-1.9,4.5c0,1.8,0.7,3.4,1.9,4.5c1.2,1.2,2.7,1.9,4.5,1.9
	s3.4-0.7,4.5-1.9c1.2-1.2,1.9-2.7,1.9-4.5C105.3,256.5,104.6,254.9,103.5,253.7z"/>
<path class="st0" d="M114.8,194c3,0,5.7,1.2,7.7,3.2c2,2,3.2,4.7,3.2,7.7c0,3-1.2,5.7-3.2,7.7c-2,2-4.7,3.2-7.7,3.2
	c-3,0-5.7-1.2-7.7-3.2c-2-2-3.2-4.7-3.2-7.7c0-3,1.2-5.7,3.2-7.7C109.1,195.2,111.8,194,114.8,194L114.8,194z M117.7,202
	c-0.7-0.7-1.8-1.2-2.9-1.2c-1.1,0-2.1,0.5-2.9,1.2c-0.7,0.7-1.2,1.8-1.2,2.9s0.5,2.1,1.2,2.9c0.7,0.7,1.8,1.2,2.9,1.2
	c1.1,0,2.1-0.5,2.9-1.2c0.7-0.7,1.2-1.8,1.2-2.9S118.4,202.7,117.7,202z"/>
<path class="st1" d="M140.4,214.1c4,0,7.5,1.6,10.1,4.2c2.6,2.6,4.2,6.2,4.2,10.1c0,4-1.6,7.5-4.2,10.1c-2.6,2.6-6.2,4.2-10.1,4.2
	c-4,0-7.5-1.6-10.1-4.2c-2.6-2.6-4.2-6.2-4.2-10.1c0-4,1.6-7.5,4.2-10.1C132.9,215.7,136.5,214.1,140.4,214.1L140.4,214.1z
	 M145.8,223.1c-1.4-1.4-3.3-2.2-5.4-2.2c-2.1,0-4,0.8-5.4,2.2c-1.4,1.4-2.2,3.3-2.2,5.4c0,2.1,0.8,4,2.2,5.4
	c1.4,1.4,3.3,2.2,5.4,2.2c2.1,0,4-0.8,5.4-2.2c1.4-1.4,2.2-3.3,2.2-5.4C148,226.4,147.1,224.5,145.8,223.1z"/>
<path class="st0" d="M284.4,241.7c0.5-0.9,0.8-2,0.8-3.2c0-3.7-2.9-5.7-5.7-5.7h-10.2v19.1H280c2.9,0,5.9-2.3,5.9-6.1
	C285.9,244.1,285.2,242.7,284.4,241.7L284.4,241.7L284.4,241.7z M273.8,236.5h5.4c0.9,0,1.7,0.8,1.7,1.9c0,1.1-0.8,1.8-1.7,1.9h-5.4
	V236.5L273.8,236.5z M279.8,248h-6V244h6c1,0,1.9,0.8,1.9,2C281.7,247.1,280.9,248,279.8,248L279.8,248L279.8,248z"/>
<path class="st0" d="M338.4,251.9l-4.2-5.8c2-1.1,3.4-3.1,3.4-5.8c0-4.2-2.9-7.5-6.9-7.5c-2.3,0-9.3,0-9.3,0v19.1h4.7v-4.8h3.4
	l3.1,4.8H338.4L338.4,251.9z M326.1,237.5h3.9c1.6,0,2.8,1.3,2.8,2.8c0,1.6-1.3,2.6-2.9,2.6l0,0h-3.9V237.5L326.1,237.5z"/>
<path class="st0" d="M354.8,232.8h-9.1v19.1h9.1c5.3,0,9.6-4.3,9.6-9.6C364.4,237,360.7,232.8,354.8,232.8L354.8,232.8z
	 M355.3,247.3h-4.9v-9.9c0,0,3.7,0,4.9,0c2.4,0,4.5,2.1,4.5,4.9C359.8,245.1,357.6,247.2,355.3,247.3L355.3,247.3z"/>
<polygon class="st0" points="385.8,236.9 385.8,232.8 371.4,232.8 371.4,232.8 371.4,251.9 371.4,251.9 385.8,251.9 385.8,247.8 
	376,247.8 376,244.4 383.8,244.4 383.8,240.3 376,240.3 376,236.9 385.8,236.9 "/>
<path class="st0" d="M409.8,251.9l-4.2-5.8c2-1.1,3.4-3.1,3.4-5.8c0-4.2-2.9-7.5-6.9-7.5c-2.3,0-9.3,0-9.3,0v19.1h4.7v-4.8h3.4
	l3.1,4.8H409.8L409.8,251.9z M397.5,237.5h3.9c1.6,0,2.8,1.3,2.8,2.8c0,1.6-1.3,2.6-2.9,2.6l0,0h-3.9V237.5L397.5,237.5z"/>
<polygon class="st0" points="421.7,247.3 421.7,232.8 417.1,232.8 417.1,251.9 433.7,251.9 433.7,247.3 421.7,247.3 "/>
<polygon class="st0" points="455.3,236.9 455.3,232.8 440.9,232.8 440.9,232.8 440.9,251.9 440.9,251.9 455.3,251.9 455.3,247.8 
	445.5,247.8 445.5,244.4 453.2,244.4 453.2,240.3 445.5,240.3 445.5,236.9 455.3,236.9 "/>
<path class="st0" d="M470.9,252.4c4.6,0,8.4-2.8,8.4-6.1c0-5.1-5-5.7-7.7-6.2c-1.1-0.2-4-0.2-4-1.7c0-1.3,1.4-2.3,3.1-2.3
	c2.5,0,3.3,1,3.3,1.5h4.7c0-2.6-2.6-5.3-8-5.3c-4.4,0-8,2.8-8,6.1c0,3.6,3.8,4.6,6,5.1c1.3,0.3,5.7,0.4,5.7,2.9
	c0,1.2-1.6,2.3-3.5,2.3c-3.4,0-3.6-2.6-3.6-2.6h-5C462.4,248.6,465.1,252.4,470.9,252.4L470.9,252.4z"/>
<path class="st0" d="M496,252.4c4.6,0,8.4-2.8,8.4-6.1c0-5.1-5-5.7-7.7-6.2c-1.1-0.2-4-0.2-4-1.7c0-1.3,1.4-2.3,3.1-2.3
	c2.5,0,3.3,1,3.3,1.5h4.7c0-2.6-2.6-5.3-8-5.3c-4.4,0-8,2.8-8,6.1c0,3.6,3.8,4.6,6,5.1c1.3,0.3,5.7,0.4,5.7,2.9
	c0,1.2-1.6,2.3-3.5,2.3c-3.4,0-3.6-2.6-3.6-2.6h-5C487.4,248.6,490.1,252.4,496,252.4z"/>
<path class="st0" d="M181.8,239.2v-1.3h4.5v1.3H181.8L181.8,239.2z M172.8,239.2v-1.3h4.5v1.3H172.8L172.8,239.2z M177.4,244
	l1.9-1.2c0.7,0.7,1.3,1.3,1.8,2.1l-0.7,0.5h5.5c-2.3-0.8-4.5-1.9-6.4-3.3c-2,1.4-4.2,2.5-6.5,3.3h5.7c-0.1-0.1-0.2-0.3-0.4-0.4
	C178.2,244.6,177.9,244.3,177.4,244L177.4,244z M181.8,240.9c-0.3-0.2-0.6-0.4-1-0.7V237h6.1v2.5h2.5v-4.5h-8.6v-0.9h7.6v-2h-17.8v2
	h7.5v0.9h-8.5v4.5h2.5V237h6v3.1c-0.1,0.1-0.2,0.2-0.4,0.4c-0.2,0.2-0.3,0.3-0.4,0.4v-1h-5.6v1.4h4.8c-1.8,1-4.3,1.9-7.6,2.6
	c0.4,0.7,0.8,1.4,1.3,2.2c0.2-0.1,0.6-0.1,1-0.3c0.5-0.1,0.8-0.2,1-0.3v1.8h11.2l-4,1.7c-1.8-0.5-3.7-1-5.7-1.5l-1.6,1.7
	c1.8,0.4,4.4,1,7.7,2.1c1.5,0.4,2.6,0.7,3.4,1l2.2-1.7c-1-0.4-2-0.6-3.2-0.8l4.9-2.5v-1.6c0.5,0.1,1.1,0.3,1.8,0.4
	c0.4-1,0.8-1.8,1.3-2.4c-3.1-0.5-5.6-1.3-7.6-2.4h4.8V240h-5.6V240.9L181.8,240.9z M210.6,243.7l1.3-1.1h-1.8v2.7h2.1
	c-0.2-0.2-0.5-0.6-0.9-1C210.9,244,210.7,243.8,210.6,243.7L210.6,243.7z M214.4,240.1v2.5h-1.6c0.6,0.5,1.2,1.1,1.8,1.7l-1.2,1h1.5
	v2.5h-12.1v-2.5h4.4v-2.7h-3.9v-2.5h3.9v-1.4H203v-2.5h11.7v2.5h-4.6v1.4H214.4L214.4,240.1z M215.5,249h-13.3v-14.1h13.3V249
	L215.5,249z M202.3,252.2h-3v-19.9h19.4v19.8h-3v-0.7h-13.3V252.2L202.3,252.2z M232.5,238.6v1.6h4.3v-1.6H232.5L232.5,238.6z
	 M239.8,240.2h4.3v-1.6h-4.3V240.2L239.8,240.2z M232.5,234.7v1.5h4.3v-1.5H232.5L232.5,234.7z M244.1,236.2v-1.5h-4.3v1.5H244.1
	L244.1,236.2z M240.5,252.3v-7.1h1c-1.4-0.8-2.4-1.7-3.1-2.6c-0.8,0.9-1.9,1.8-3.3,2.6h1.2c0,2.1-0.3,3.6-0.8,4.5
	c-0.7,0.9-2,1.8-4,2.7c-0.7-1-1.3-1.7-1.9-2.2c1.7-0.6,2.8-1.2,3.3-1.9c0.4-0.4,0.5-1.1,0.5-2.2c-1.3,0.6-2.6,1.2-4.1,1.7
	c-0.4-0.8-0.9-1.6-1.5-2.5c3-0.8,5.3-1.7,7-2.8h-5v-10.2H247v10.2h-5.3c1.9,1.2,4.3,2.1,7.3,2.6c-0.3,0.5-0.8,1.4-1.5,2.7
	c-1.5-0.5-2.8-1-4-1.5v6H240.5z"/>
<path class="st0" d="M185.3,273.5c0,0.5,0,1.3-0.1,2.3c0,0.9,0,1.6,0,2h1.8v1.1h-1.8c0,0.4,0,1-0.1,1.8c0,0.7,0,1.1,0,1.4h1.3v1.1
	H185c-0.1,1.7-1.1,2.5-2.9,2.5c-0.8,0-1.5,0-2.3,0c0-0.2,0-0.5-0.1-0.9c0-0.2-0.1-0.4-0.1-0.5c0.6,0,1.4,0.1,2.3,0.1
	c1.1,0,1.7-0.3,1.8-1.1h-8.9l0.6-4.3h-1.7v-1.1h1.8l0.6-4.3H185.3L185.3,273.5z M183.7,282.1c0-0.3,0.1-0.8,0.1-1.6
	c0-0.7,0.1-1.3,0.1-1.6h-7.2l-0.4,3.2H183.7L183.7,282.1z M177.2,274.6l-0.4,3.2h7.1c0-1.1,0.1-2.1,0.1-3.2H177.2L177.2,274.6z
	 M173.5,274c0,0.1,0.1,0.2,0.3,0.4c0.3,0.3,0.5,0.6,0.6,0.7c0.8-0.8,1.6-1.8,2.5-3.1h9.8v-1.2h-9.1c0.3-0.5,0.5-1,0.8-1.6L177,269
	C176.2,270.9,175,272.5,173.5,274L173.5,274z M170.3,285.4c0.4-1.1,0.9-3.1,1.7-5.8c0-0.3,0.1-0.5,0.1-0.6c0.5,0.2,0.9,0.4,1.3,0.5
	c-0.6,2-1.1,4.2-1.6,6.4L170.3,285.4L170.3,285.4z M170.7,273.8l-0.9,1c1,0.8,1.9,1.5,2.8,2.3l1-1.1
	C172.7,275.4,171.7,274.6,170.7,273.8L170.7,273.8z M171.3,269.3c0.9,0.6,1.8,1.4,2.8,2.4l-0.9,1c-1.1-1-2-1.9-2.8-2.5L171.3,269.3
	L171.3,269.3z M178.9,275.6c0.7,0.6,1.4,1.2,2.1,1.8l0.9-0.9c-0.7-0.6-1.4-1.1-2.1-1.7L178.9,275.6L178.9,275.6z M178.7,280.1
	c0.7,0.6,1.2,1,1.3,1.2c0.3,0.3,0.6,0.5,0.7,0.6l0.9-0.9c-0.7-0.6-1.4-1.1-2.2-1.7L178.7,280.1L178.7,280.1z M194.1,278
	c1.8-2.8,3.2-5.8,4-8.9l1.4,0.4c-0.3,0.9-0.6,1.8-0.9,2.7h4.6v1.1c-0.7,5.7-3.2,9.9-7.7,12.5c-0.3-0.4-0.6-0.8-0.9-1.2
	c4.3-2.4,6.6-6.1,7.2-11.1h-3.7c-0.3,0.8-0.7,1.6-1.1,2.3c0.6,0.4,1.3,1,2.3,1.8c0.3,0.2,0.6,0.4,0.7,0.6l-0.9,1.1
	c-1.1-1-2-1.8-2.7-2.3c0,0.1-0.1,0.3-0.3,0.6c-0.5,0.9-0.9,1.6-1.3,2C194.6,278.8,194.3,278.4,194.1,278L194.1,278z M204.9,269.2
	h1.3v16.7h-1.3V269.2L204.9,269.2z M206.3,275.5l0.9-1c1.8,1.4,3.2,2.5,4.2,3.3l-0.9,1.3c-0.9-0.8-2.2-1.9-4-3.3
	C206.4,275.6,206.3,275.6,206.3,275.5L206.3,275.5z M225.1,269.1l1.5,0.2c0,0.2-0.2,0.5-0.4,0.9c-0.1,0.4-0.3,0.8-0.4,1h9.7v1.2
	h-10.2c-0.8,1.7-1.7,3.2-2.7,4.6v8.7h-1.3v-7c-0.7,0.8-1.3,1.5-2,2.1c-0.2-0.4-0.5-0.9-0.9-1.3c2.2-1.9,3.9-4.3,5.3-7.2h-4.5v-1.2h5
	C224.8,270.5,225,269.8,225.1,269.1L225.1,269.1z M228.7,273.6v3.5h-4.5v1.2h4.5v5.2h-5.4v1.1h12.3v-1.1H230v-5.2h4.5v-1.2H230v-3.5
	H228.7L228.7,273.6z M254.3,275.6h1.3c0,1.9-0.1,3.5-0.3,4.7h4.5v1.1H255l-0.1,0.4c2.6,1.4,4.3,2.3,5,2.8l-0.9,1.1
	c-1.5-1-3.1-1.9-4.8-2.8c-0.9,1-2.8,2.1-5.8,3.1c-0.1-0.2-0.4-0.6-0.9-1.2c3.5-1,5.6-2.1,6-3.3h-5.9v-1.1h6.4
	C254.2,279.5,254.3,278,254.3,275.6L254.3,275.6z M247.8,274v1.2h10.4l-0.5,2.1c0.2,0,0.4,0,0.7,0.1c0.2,0,0.4,0,0.6,0l0.6-2.1V274
	h-5.2v-1.7h4.9v-1.2h-4.9v-2H253v2h-4.6v1.2h4.6v1.7H247.8L247.8,274z M248.2,281.8c-0.5,0.4-1.1,0.9-1.9,1.4v-8.2H243v1.3h2v6.5
	c0,0.6-0.1,1.1-0.6,1.4l0.8,1.1c0.9-0.8,1.9-1.5,3.2-2.1C248.3,282.9,248.3,282.4,248.2,281.8L248.2,281.8z M245,269.6
	c0.2,0.2,0.5,0.5,0.9,0.9c0.8,0.9,1.4,1.5,1.8,1.8l-1.1,0.9c-0.5-0.7-1.4-1.6-2.6-2.8L245,269.6L245,269.6z M248.4,278.3
	c1.1,0.6,2.1,1.2,3.1,1.8l0.7-1.1c-1.2-0.7-2.3-1.3-3.2-1.6L248.4,278.3L248.4,278.3z M249.7,276.5c1,0.5,2.1,1,3.1,1.7l0.6-1.1
	c-1-0.6-2-1.1-3.1-1.6L249.7,276.5L249.7,276.5z M273.9,270.6h9.6c-0.1,3.8-0.2,7.8-0.4,11.8c0,2.1-0.9,3.1-2.8,3
	c-0.7,0-1.5,0.1-2.5,0.1c0-0.6-0.1-1.1-0.3-1.6c0.5,0,1.3,0.1,2.5,0.1c1.1,0.1,1.6-0.5,1.6-1.7c0.2-2.6,0.3-6,0.4-10.3h-3.9
	c0,0.4,0,1.1-0.1,2.3c0,1.2-0.1,2-0.1,2.3c0,3.9-1.6,7-4.8,9.3c-0.6-0.6-1-1-1.1-1.1c2.9-2.1,4.4-4.9,4.4-8.5
	c0.1-2.1,0.1-3.5,0.1-4.3h-2.8V270.6L273.9,270.6z M267.7,273.6h4c-1.3,2.1-2.7,3.8-4.4,5.2c0.1,0.5,0.3,1,0.4,1.5
	c0.8-0.7,1.5-1.4,2.1-2.1v7.5h1.3v-7.1c0.1,0.1,0.2,0.2,0.4,0.4c1,0.8,1.7,1.3,2.3,1.8l0.9-1.1c-0.6-0.4-1.1-0.9-1.7-1.3
	c0.3-0.4,0.8-1,1.4-1.8c0.1-0.3,0.3-0.5,0.4-0.6l-1.1-0.7c0,0.1-0.1,0.2-0.3,0.4c-0.6,0.9-1,1.5-1.3,1.9c-0.1,0-0.2-0.1-0.4-0.3
	c-0.2-0.1-0.3-0.2-0.4-0.3v-0.6c0.7-0.9,1.4-1.9,2.1-3.1v-1.3h-5.5V273.6L267.7,273.6z M269.5,269.6l1.2-0.6
	c0.4,0.7,0.9,1.4,1.3,2.3l-1.3,0.6C270.3,271.1,269.9,270.3,269.5,269.6L269.5,269.6z M294.6,273.1h11.1v3.6h-11.1V273.1
	L294.6,273.1z M294,285.8h-1.3v-7.9h15v5.7c0.1,1.4-0.6,2.1-2.1,2.1c-0.8,0-1.6,0-2.3,0c0-0.3-0.1-0.7-0.2-1.1
	c0-0.1-0.1-0.2-0.1-0.2c0.6,0,1.3,0,2.2,0c0.9,0,1.2-0.3,1.1-0.9v-4.5H294V285.8L294,285.8z M296.3,280.1v3.8h7.8v-3.8H296.3
	L296.3,280.1z M299.3,269.4l1.3-0.3c0.1,0.5,0.3,1.1,0.5,1.7h7.6v1.1h-16.9v-1.1h7.9c0-0.1-0.1-0.4-0.2-0.9
	C299.4,269.7,299.4,269.5,299.3,269.4L299.3,269.4z M296,274.2v1.4h8.5v-1.4H296L296,274.2z M297.6,281.1v1.6h5.3v-1.6H297.6
	L297.6,281.1z M317.2,272.8h6.7v-3.8h1.4v3.8h6.7v7.8h-1.4v-0.9h-5.3v6.3h-1.4v-6.3h-5.3v0.9h-1.4V272.8L317.2,272.8z M330.6,274.1
	h-5.3v4.3h5.3V274.1L330.6,274.1z M318.6,274.1v4.3h5.3v-4.3H318.6L318.6,274.1z M344.2,269.9l1.4,0.4c-0.3,0.9-0.7,1.7-1.1,2.4h4
	v-3.7h1.4v3.7h6.5v1.3H350v4h6.1v1.4H350v4.3h7.5v1.2h-17v-1.2h8v-4.3h-6.1V278h6.1v-4h-4.7c-0.7,1.2-1.5,2.4-2.4,3.6
	c-0.3-0.4-0.7-0.7-1.1-1.1C342.1,274.7,343.4,272.5,344.2,269.9L344.2,269.9z M373,279.1l3.3-1.8h-8.1v-1.3h10.1v1.4l-3.9,2.3v0.4
	h7.5v1.3h-7.5v2.4c0.1,1.4-0.6,2.1-2.2,2.1c-0.9,0-1.7,0-2.4,0c0-0.1,0-0.3-0.1-0.6c0-0.4-0.1-0.7-0.1-0.9c0.7,0,1.5,0.1,2.5,0.1
	c0.8,0,1.1-0.3,1.1-0.9v-2.2h-8.1V280h8.1V279.1L373,279.1z M365.5,272.9v3.6h1.4v-2.3h12.9v2.3h1.4v-3.6H365.5L365.5,272.9z
	 M376.3,272c0.9-0.9,1.7-1.8,2.3-2.6l1.1,0.8c-0.7,0.9-1.5,1.8-2.3,2.7L376.3,272L376.3,272z M371.5,269.7l1.1-0.6
	c0.6,0.7,1.2,1.6,1.9,2.8l-1.2,0.7C372.9,271.7,372.3,270.8,371.5,269.7L371.5,269.7z M366.9,270.2l1-0.7c0.4,0.5,1,1.2,1.8,2.2
	c0.1,0.1,0.2,0.2,0.2,0.3l-1.1,0.9C368.2,271.9,367.6,271,366.9,270.2L366.9,270.2z M399.2,269.4h1.4v14.2h5.6v1.2h-17v-1.2h5.5
	v-14.2h1.4v14.2h3V269.4L399.2,269.4z M391.3,272.8l-1.3,0.4c0.9,2.4,1.8,4.8,2.6,7.2l1.3-0.6C393.2,277.5,392.3,275.2,391.3,272.8
	L391.3,272.8z M401.3,279.8l1.2,0.6c0.8-1.4,1.8-3.7,3.1-7l-1.3-0.6C403.1,275.7,402.2,278.1,401.3,279.8L401.3,279.8z M416.3,276.5
	h11.6v3.7h-10.4v1.2h10.7v4.5h-1.3v-0.7h-9.4v0.7h-1.2V276.5L416.3,276.5z M421,273c0.2,0.4,0.4,0.8,0.6,1.1h-7.3v2.6h1.2v-1.6h13.1
	v1.6h1.3v-2.6H423c0,0-0.1-0.1-0.1-0.3c-0.3-0.6-0.5-1-0.7-1.3L421,273L421,273z M426.9,282.5h-9.4v1.6h9.4V282.5L426.9,282.5z
	 M416.9,269l1.4,0.1c-0.3,0.6-0.6,1.1-0.9,1.6h5v1.1h-4.1c0.2,0.2,0.5,0.5,1,1c0.2,0.2,0.3,0.4,0.4,0.5l-1,0.8c0,0-0.1-0.1-0.1-0.1
	c-0.5-0.6-0.9-1.1-1.3-1.6l0.8-0.6h-1.5c-0.7,0.9-1.4,1.6-2.1,2.2c-0.2-0.3-0.5-0.6-0.9-1C415,271.8,416.2,270.5,416.9,269
	L416.9,269z M424.5,269l1.4,0.1c-0.1,0.3-0.3,0.7-0.6,1.2c-0.1,0.2-0.2,0.3-0.2,0.4h5.5v1.1h-4.4c0.2,0.2,0.5,0.5,0.9,0.9
	c0.3,0.3,0.5,0.5,0.6,0.6l-1,0.8c0,0-0.1-0.2-0.3-0.4c-0.1-0.1-0.5-0.6-1.1-1.4l0.8-0.5h-1.4c-0.3,0.6-0.7,1.1-1.1,1.5
	c-0.3-0.3-0.6-0.6-1-0.9C423.3,271.4,424,270.3,424.5,269L424.5,269z M417.5,277.6v1.6h9.1v-1.6H417.5L417.5,277.6z M444.3,280.5
	h4.4v-2.1h-4V270h9.3v8.4h-4v2.1h4.3v1.1h-4.3v2.3h5.1v1.2h-11.8V284h5.4v-2.3h-4.4V280.5L444.3,280.5z M438.2,276.4v1.1h2.1v5
	c-0.9,0.2-1.8,0.4-2.6,0.6l0.4,1.3c1-0.3,2.7-0.8,5-1.3c0.4-0.1,0.6-0.2,0.8-0.2c0-0.4-0.1-0.8-0.1-1.3c-0.7,0.2-1.4,0.4-2.2,0.6
	v-4.6h2.2v-1.1h-2.2v-4.5h2.3v-1.2H438v1.2h2.3v4.5H438.2L438.2,276.4z M445.9,274.8v2.6h2.8v-2.6H445.9L445.9,274.8z M449.9,274.8
	v2.6h2.7v-2.6H449.9L449.9,274.8z M445.9,271.2v2.6h2.8v-2.6H445.9L445.9,271.2z M452.6,271.2h-2.7v2.6h2.7V271.2L452.6,271.2z
	 M465.8,279.8v-1.3l0.8-2.1h-4.1v-1.3h4.7l0.9-2.3h-4.5v-1.4h5l0.9-2.3h1.5l-0.9,2.3h8.2v1.4h-8.7l-0.9,2.3h10.8v1.3h-11.3l-0.9,2.1
	h10.1v1.3l-4.5,3.9c0.8,0.3,1.6,0.6,2.3,1.1l-0.9,1.3c-2.6-1.4-5.4-2.7-8.4-4l0.7-1.1c1.5,0.7,3.1,1.4,4.9,2.3l3.9-3.4H465.8
	L465.8,279.8z M487,281.3c2.9-0.8,5.2-1.9,7-3.5c0-0.1-0.1-0.2-0.3-0.4c-0.1-0.1-0.3-0.3-0.4-0.4c-1.7,1.1-3.6,2-5.7,2.6
	c-0.2-0.3-0.5-0.7-0.8-1.2c2.5-0.6,4.8-1.6,7-3.1h-4.7v-1.1h12.3v1.1h-5.8c-0.4,0.3-0.9,0.7-1.3,1.1c0.7,0.7,1.2,1.4,1.6,2.3
	c1.9-0.9,3.7-1.9,5.2-2.8l0.9,1.1c-1.1,0.6-2.2,1.1-3.3,1.7c0.9,2.3,2.6,3.8,5.2,4.7c-0.4,0.3-0.7,0.7-1.1,1.2
	c-2.6-1-4.3-2.8-5.3-5.4c-0.1,0-0.3,0.1-0.5,0.3c-0.2,0.1-0.4,0.2-0.6,0.3c0.3,0.8,0.4,1.7,0.4,2.6c0.1,2.3-1,3.4-3.2,3.3
	c-0.7,0-1.2,0.1-1.7,0.1c-0.1-0.5-0.2-0.9-0.3-1.4c0.3,0,0.9,0.1,2,0.1c1.3,0.1,2-0.6,1.9-2.1c0-0.4,0-0.9-0.1-1.3
	c-1.8,1.8-4.4,3.3-7.8,4.4c-0.1-0.3-0.4-0.8-0.7-1.3c3.4-0.9,6.1-2.4,8.2-4.4c-0.1-0.4-0.3-0.7-0.5-1c-1.8,1.6-4.1,2.8-6.8,3.7
	C487.5,282.1,487.3,281.8,487,281.3L487,281.3z M494.1,269.4c0.3,0.5,0.6,1.1,0.9,1.9h-7.7v2.9h1.3v-1.7h13.2v1.7h1.3v-2.9h-7.5
	l0.8-0.2c-0.1-0.3-0.3-0.7-0.5-1.2c-0.2-0.4-0.3-0.7-0.4-0.9L494.1,269.4z"/>
<g>
	<line class="st2" x1="169.2" y1="261.5" x2="503.7" y2="261.5"/>
</g>
<path class="st1" d="M303.8,232.2c-2.8,0-5.3,1.1-7.2,3c-1.8,1.8-3,4.4-3,7.2c0,2.8,1.1,5.3,3,7.2c1.8,1.8,4.4,3,7.2,3
	c2.8,0,5.3-1.1,7.2-3c1.8-1.8,3-4.4,3-7.2c0-2.8-1.1-5.3-3-7.2C309.2,233.4,306.6,232.2,303.8,232.2L303.8,232.2z M300,238.6
	c1-1,2.3-1.6,3.8-1.6c1.5,0,2.8,0.6,3.8,1.6c1,1,1.6,2.3,1.6,3.8c0,1.5-0.6,2.8-1.6,3.8c-1,1-2.3,1.6-3.8,1.6
	c-1.5,0-2.8-0.6-3.8-1.6c-1-1-1.6-2.3-1.6-3.8C298.5,240.9,299.1,239.6,300,238.6z"/>
</svg>
